<svg version="1" xmlns="http://www.w3.org/2000/svg" width="1172" height="1172" viewBox="0 0 879.000000 879.000000"><path d="M455 89c-30 2.2-76.3 18.5-101.4 35.7-28.6 19.7-34.8 24-39.6 28-3 2.5-7.8 6.4-10.6 8.6-4.1 3.4-5.6 5.5-7.8 11.1-1.4 3.8-2.5 7-2.4 7.1.2.2 6.2-3.9 13.3-9.1 7.2-5.2 15.9-11 19.5-13 3.6-2 8.7-5.2 11.3-7.1 8.1-5.7 44.6-23.3 52.1-25.2 2.7-.7 6.1-1.8 7.5-2.5 2.5-1.3 18.7-5.5 35.1-9.1 4.1-.9 15.7-2.1 25.7-2.8 15.9-1 20.1-.9 34 .7 8.7 1 21.4 3.2 28.2 4.8 6.9 1.6 13 2.7 13.7 2.4 1.2-.5 13.4-16 13.4-17 0-.3-3.3-1.5-7.2-2.6-34.9-10-54.4-12.3-84.8-10zM547.5 112c-3.6 4.9-6.5 9.1-6.5 9.3 0 .2 1.9 1 4.3 1.7 13.3 3.9 50.7 20 65.7 28.3 16.5 9 33.7 19.1 36.3 21.3 1.6 1.3 3.2 2.4 3.7 2.4.8 0 4.9 3.1 28.5 20.9 7.6 5.8 24.3 20.2 24.4 21.2.1.3-2.7 1.3-6.1 2.3-3.5.9-8.1 2.6-10.3 3.6-9.1 4.4-9.2 4.4-23.7-7.5-6.5-5.4-25.1-18.1-45-30.6-8.9-5.7-37.9-20.2-46.8-23.6-3.6-1.3-8.5-3.4-11-4.7-2.5-1.2-8.5-3.5-13.5-5.1-4.9-1.5-12.1-3.8-15.8-5.1-3.8-1.3-7-2.4-7.2-2.4-.6 0-11.7 15.1-11.3 15.4 1 .7 9.6 3.6 10.7 3.6.7 0 4.9 1.6 9.2 3.5 4.4 1.9 8.7 3.5 9.5 3.5 1.9 0 22.4 8.8 24.4 10.4.8.7 3.5 2.1 6 3 4.8 1.8 34 17.9 45.2 24.9 14.1 8.8 35.9 24.8 35.2 25.8-.2.4-4.1 2.2-8.7 3.9-4.5 1.8-10.2 4.2-12.7 5.5-2.5 1.3-9.3 4.2-15 6.5-5.8 2.2-13.4 5.7-17 7.7-3.6 2-8.3 4.4-10.5 5.2-2.2.9-10.6 5.1-18.6 9.3-8.1 4.3-15.4 7.8-16.2 7.8-.8 0-2-.6-2.6-1.4-1.3-1.6-28.2-12.6-30.6-12.6-.9 0-3.3-.9-5.5-2-2.1-1.1-5.5-2.4-7.7-2.9-2.1-.6-6.3-1.8-9.3-2.7-10.2-3.1-25.8-6.9-40.4-9.8l-10.8-2.3-15.8 21c-15 20-15.7 21.1-14.5 23.6 6.1 12.9 5.9 12.6 9.9 13.6 3 .7 5.6 2.8 11.9 9.7 4.5 4.9 11.8 11.8 16.3 15.4 8.7 6.9 13.6 11.9 16.9 17.4 3.1 5.3 3.9 6.4 6 9 2.5 3.1 11.4 10.5 13.6 11.2.9.4 4.2 4.6 7.4 9.5 3.2 4.8 6.9 10.1 8.1 11.6 1.3 1.6 4 6.1 6 10 3.5 7.2 9.8 17.9 16.4 27.9 4.4 6.6 5.7 8.7 7.1 11.3.5 1.1 2.5 4.6 4.2 7.7 1.8 3.1 5.6 10.1 8.5 15.5 2.9 5.4 7.1 12.7 9.2 16.3 2.2 3.6 4.5 7.6 5.2 9 .6 1.4 2.5 4.1 4 6.1s2.8 4.1 2.8 4.7c0 .5 1.2 1.4 2.8 2 1.5.6 45.5 7.2 97.7 14.6 52.3 7.5 95.8 13.8 96.7 14 1.5.3 1.4-.1-.4-4.3-7.3-16.5-8.9-20.2-10.9-25.4l-2.3-5.7 2.4-3.3c1.4-1.7 4.8-6.8 7.7-11.2 2.9-4.4 6.6-10 8.3-12.5 5.7-8.4 8-12.1 10-16 1.1-2.1 3-5.4 4.3-7.3l2.3-3.4 2.6 13.6c5 25.6 6.8 42.5 6.8 63.7v16.1l3.1.7c6.9 1.4 7.6 1 8.3-4.2 1.5-11.9 1.8-39.7.6-54.8-1.2-15.3-6.8-51.2-8.8-56.4-.8-2.1.1-4.5 5.6-15.5l6.5-13 2.8 9c1.6 4.9 3.3 11.8 3.8 15.2.5 3.4 1.2 6.7 1.5 7.2.3.5 1.7 8.6 3.1 18.1 3.4 23.3 3.6 59.8.4 82.4-1.1 8.2-1.9 15-1.7 15.1.2.2 2.3.5 4.7.6l4.4.4 1.4-5.5c.7-3 2-10.7 3-17 2.3-16.3 2.4-60.4 0-79-2.7-21-7.7-45.6-10.8-52.8-1-2.4-2.1-5.8-2.5-7.7-.3-1.9-1-3.2-1.5-3-.9.6.4-2.5 4.2-10 1.4-2.8 3.6-7.9 4.9-11.5 1.3-3.6 3.2-7.9 4.1-9.5 1.7-2.8 6.9-17 8.9-24 .4-1.7 1.3-4.4 1.9-6 7.3-21.1 11-44.4 9.8-61.4-1-13.4-3.8-20.4-11.1-27.9-3.3-3.5-7.1-6.8-8.2-7.5-10.2-5.8-18.3-9.4-25.9-11.4-8.1-2.3-10.2-2.4-22-1.9-15.6.7-37.8 4.4-55.1 9.2-9.4 2.6-9.9 2.4-20.9-8.7-12.8-12.9-47-40.6-58-46.9-2.4-1.4-5.1-3.3-6.2-4.1-1-.9-3.4-2.4-5.3-3.4s-4.4-2.5-5.5-3.5c-2.5-2.3-48.8-26-59.8-30.7-4.5-1.9-11.9-4.7-16.4-6.3l-8.2-2.9-6.6 8.9z"/><path d="M435 133c-20.8 1.7-42.4 6.3-60.5 12.8-11.3 4.1-32.2 13.1-37.5 16.3-18.6 11-32.5 20.4-46.9 31.5-3.2 2.6-4 3.9-8.2 14.7l-2.1 5.2 6.4-6c7-6.5 13.6-11.7 26.8-20.9 20.8-14.5 42-24.7 65-31 23-6.4 34.5-7.9 58-7.8 21.5 0 35 1.8 60 7.6l9.6 2.3 5.7-7.8c3.1-4.3 5.3-8 4.9-8.2-1.1-.7-23.6-5.4-33.7-7.1-11.5-1.9-34-2.7-47.5-1.6zM315 240c-16.2 1.8-34.7 4.2-39.5 5-30.1 5.1-41.4 7.4-54 11-4.4 1.3-9.8 2.6-12 3-4.5.8-29.2 7.9-40.2 11.6-3.9 1.3-7.7 2.4-8.5 2.4-2.3 0-24 9-26.6 11.1-1.4 1-2.9 1.9-3.5 1.9-2.3 0-13.8 8.7-21.2 16-7.2 7.1-8.5 8.9-12.5 18.2l-4.5 10.3.1 12.5c0 11.9.2 13 3.7 22.5 4 10.6 11.5 25.3 17.2 33.8 5.6 8.2 21.9 25.1 33.4 34.4 10.1 8.2 13.9 11.5 28.3 24.4 6.1 5.4 21.1 17.5 26.3 21.2 1.4 1 2.5 2.1 2.5 2.6 0 .4-1.9 1.8-4.2 3-6.1 3.4-23.8 14.5-35.3 22.1-2.2 1.5-6 3.7-8.4 5-2.5 1.2-8.3 4.7-13 7.8-4.7 3-12.4 7.7-17 10.4-4.7 2.7-9.8 6-11.5 7.4-1.7 1.4-8.7 6.1-15.6 10.4-6.9 4.3-13.8 9-15.5 10.3-1.6 1.3-6.6 4.7-11 7.5s-9.8 6.4-11.9 7.9c-5.3 3.8-13.7 9.3-21.6 14.2-3.6 2.2-7.2 4.6-8 5.3-.9.7-4 7.9-7.1 15.9l-5.5 14.6 7.4 4.9c4.1 2.7 8 5.1 8.6 5.3.6.2 4.5 2.9 8.8 6 4.2 3.1 9.9 7.2 12.7 9.1 2.9 1.9 6.5 4.5 8 5.7 1.6 1.3 3.3 2.3 3.9 2.3.5 0 2.2 1 3.7 2.2 5.8 4.6 23 12.9 39.5 19.2 5.2 2 11.8 4.7 14.5 6.1 2.8 1.3 11.1 4.7 18.5 7.5s14.4 5.7 15.5 6.4c3.1 1.9 18.1 7.7 24.9 9.6 3.3 1 10.4 3.3 15.6 5.3 8.7 3.2 12.5 4.4 26 8.2 2.5.7 6.8 2 9.5 2.8 6.9 2.1 42.5 8.7 47.2 8.7 2.1 0 7.6.7 12.2 1.5s19.3 2 32.7 2.7c34.2 1.7 66.7.1 95.9-4.7 11.6-1.9 23-3.9 25.5-4.6 8.9-2.2 39.6-12.2 46.5-15.1 3.9-1.6 9.4-3.9 12.4-5.1 3-1.2 13.7-6.4 23.7-11.4 10-5.1 19-9.3 20-9.3 1.1 0 9.1 3.4 17.9 7.6 8.8 4.2 21.9 10.2 29 13.4 7.2 3.2 19.6 8.9 27.7 12.8 8 3.8 16.4 7.5 18.5 8.2 2.1.7 7.6 3.2 12.3 5.5 4.7 2.3 10.3 4.8 12.5 5.5 2.2.7 10 4.1 17.3 7.6 7.3 3.4 14.2 6.6 15.5 7 1.2.3 13.9 5.8 28.2 12.1 24.2 10.7 32.4 14.4 54.5 24.3 4.7 2.2 12.6 5.5 17.5 7.5 5 2 9.6 3.8 10.3 4.2 1.5.7 1.5-2.1.2-36.3-1-25.5-4.7-68.3-7.4-85.9-.8-5-2.4-15.8-3.5-24-4.3-31.6-4.2-29.6-2.2-32.4 4-5.6 15.4-29.8 20.6-43.8 5.6-14.9 12-37.7 11-39.2-.3-.5-2.3-1.1-4.4-1.3-4.5-.4-4-1.5-7.6 15.7-1 4.4-2.8 10.7-4 14-1.3 3.3-2.6 7.1-3 8.5-1 3.3-7.7 19.3-12.8 30.4l-4.1 8.9-1.2-6.3c-1.1-6.2-1-6.7 3.1-19.4 5.5-17.1 6.3-20.1 9.5-38.7l2.6-15.7-5-.6c-2.7-.3-5.1-.4-5.2-.3-.1.1-.7 7.5-1.4 16.5-.6 8.9-2.2 21.9-3.6 28.9-1.3 7-2.4 13-2.5 13.3-.1.7-2.7-8.2-4.3-15-.8-3-1.9-6.9-2.5-8.5-1.3-3.9-4-12.2-5.1-16-.4-1.7-1.8-5.5-3-8.5s-2.6-6.9-3.1-8.5c-2-6.8 4.2-5.6-96.2-19.9-64.2-9.2-92.3-12.8-91.5-11.9.6.7 1.5 1.3 2.1 1.3.5 0 2.9 1.6 5.3 3.5 2.3 1.9 4.6 3.5 5.1 3.5 1.5 0 18.6 15.4 23.7 21.4 5.3 6.3 9.6 12.2 9.6 13.4 0 .4 2.9 3.7 6.5 7.2s6.5 6.1 6.5 5.7c0-.3-1.2-3.7-2.6-7.4-2.7-7.1-3.7-10.2-7.7-24.4l-2.4-8.6 8.9-1.8c10-2 9.6-2.2 12.3 5 .8 2.2 4 10.7 7.1 19 3 8.2 6.5 17.7 7.6 21 1.2 3.3 3.4 9.2 5 13.2 1.7 4 3.4 8.7 3.8 10.5.4 1.8 1.7 5.5 2.8 8.3 1.9 4.9 2.7 7.1 6 16.5.8 2.5 3.5 9.7 6 16 4.8 12.3 18.3 52 20.7 60.8 2.2 7.7 1.9 17.1-.5 20.2-1.5 2-2.8 2.5-6.6 2.5-4.2 0-5-.4-8-4-1.9-2.1-3.7-5.1-4.1-6.5-.6-2.7-3.7-12.4-5.2-16.2-3.2-8.3-4-10.6-4.6-13.1-.3-1.7-1.5-3.1-3-3.7-2.3-.9-32.8-5-51.5-7-4.7-.5-13.4-1.6-19.5-2.5-6-.8-20-2.6-31-3.9-27.4-3.4-55.1-7.1-79.4-10.7-27.5-4-40.5-5.3-81.1-8.4-11.3-.8-35.8-2.8-54.5-4.5-47.6-4.1-108.9-8.5-133-9.5-7.1-.4-24.1-1.3-37.7-2.1l-24.7-1.4-5.4-3.7c-5.6-3.9-7.9-6.8-10.9-14.1-1.7-4-1.7-4.2 0-4.2 1 0 3.8 2 6.2 4.5 5 5.1 11 8.2 18.4 9.5 2.8.5 17 1.4 31.6 2 30.2 1.2 75.8 3.8 81 4.5 1.9.3 14.3 1.2 27.5 2 23 1.4 68.4 5 77.2 6 3.9.4 4.2.3 4.8-2.4.8-3.6 3.7-4.9 13.8-6.2 9-1.1 10.1-1.6 13.7-5.4 2.9-3.1 3.1-7.3.6-18.4-1.6-7.5-3.5-11.2-9.4-19-1.8-2.4-3.9-5.8-4.6-7.6-.8-1.8-2-3.7-2.8-4.1-4.2-2.8-10.5-14.4-14.8-27.6-3-9.2-5.7-14.6-11.4-22.8-3.3-4.6-3.4-2.6 1-21.5.8-3.3 1.8-7.9 2.3-10.2l.8-4.1-7.6-1.1c-15.6-2.4-18.6-2.4-24.1-.6-5.2 1.7-6.3 1.7-20.1-.1-3.9-.5-5.7-.1-11.2 2.5-9.8 4.7-18.9 4.2-25.3-1.3-4-3.5-5-8.1-2-9.8 2.8-1.6 1.7-2.8-2.4-2.8-3.7 0-4-.2-4-2.6 0-2.6.1-2.6 5.1-2.2 4.8.5 5.1.4 4.7-1.7-.6-2.7 1.9-4.5 6.4-4.5 1.8-.1 4.4-.7 5.8-1.5 1.6-.9 5.5-1.4 10.7-1.5 6.7 0 9.6-.5 15.6-2.9 4.1-1.6 9.1-3.3 11.3-3.6 7.9-1.4 14.9-3.5 16.2-4.9 2.7-2.6.5-6.3-7.1-12.4-6.7-5.3-15.7-14-15.7-15.2 0-.6 24.4-15.1 27.3-16.3 1-.4 3.3-1.7 4.9-2.9 2.8-1.9 3-2.4 2.4-6.4-.3-2.4-1.6-6.5-3-9.1-2-4.1-3.8-10.4-6.2-21.1-.2-1.2-.8-2.2-1.2-2.2-1 .1-24.5 31.7-25.9 34.9-.6 1.5-1.6 6.9-2.2 12-1.1 10.1-2.7 13.1-6.8 13.1-3 0-9-4.4-10.9-8.1-1.8-3.6-2.1-53.6-.3-59 .7-1.9 3.1-5.9 5.5-9 4.6-5.9 4.8-6.4 8.8-17.4 2.1-5.6 3.3-7.5 6.4-9.4 2-1.4 5.6-4 7.9-5.8l4.2-3.4-.2-12.2c-.2-10.9 0-12.7 2.1-16.7 3.4-6.9 7.7-8.5 22.7-8.4 11.8.1 14.9.7 24.6 4.8 3.7 1.5 9.9 8.3 9.9 10.7 0 .7 5.8-6.6 12.9-16.2 7.1-9.6 12.8-17.5 12.6-17.7-.2-.2-10.8-1.4-23.7-2.8-18.5-1.9-30.4-2.5-58.3-2.9-19.2-.2-38.4 0-42.5.5z"/><path d="M353.4 349.9c-8.6 6.9-11.9 13.6-11.2 23l.3 4.3 10.8-14.6c5.9-8.1 10.7-15.1 10.7-15.6 0-2.5-6-.8-10.6 2.9zM470.4 460c-2.8.4-6.6 1.5-8.5 2.4-3.9 1.9-16.1 12-18.4 15.3-1.5 2.1-1.4 2.3.7 2.7 6.5 1.5 73.1 10.6 73.6 10.2.7-.8-1.8-3.5-5.4-6-1.8-1.1-7.4-5.3-12.5-9.1-12.8-9.6-22.7-16.5-23.6-16.4-.5.1-3.1.5-5.9.9zM386.5 465.5c-1.6.7-5 2.1-7.5 3.1l-4.5 1.9 4.5.7c9.1 1.3 9.7 1.2 10.3-2.9.4-2 .5-3.7.4-3.8-.1-.1-1.5.4-3.2 1zM433.9 487.6c-1.9 2-5.6 5.2-8.4 7.2-5.9 4.3-8.3 6.9-9.1 9.8-.6 2.3 3.4 10.5 7.1 14.4 2.4 2.5 9.5 16.4 9.5 18.6 0 .7 1.8 5.1 4 10 2.3 4.8 4.5 10.4 5 12.3.5 2 1.8 7 2.8 11.1 2.8 10.8 5.9 19.7 9.2 26 4.3 8.3 10 24.9 10 28.9 0 .9.9 3.1 2 4.8 1.6 2.6 2.6 3.3 5.2 3.3 1.8 0 11.6 1.1 21.8 2.4 10.2 1.4 24.1 3.2 31 4.1 6.9.9 20.8 2.7 31 4.1 32 4.3 48.1 6.4 60 8 24.5 3.2 39.1 5.3 58.1 8.2l5.6.8-1.7-5.1c-1-2.7-2.3-7-3-9.5-.7-2.5-1.9-6.2-2.6-8.3-.8-2-1.4-4.6-1.4-5.7 0-1.3-1.8-3.2-4.9-5.2-3.6-2.4-6.1-5.4-10-11.8-2.9-4.7-8.8-12.3-13.3-17-7.6-8.1-10.9-12.1-16.2-20-3.4-4.9-11.8-12.8-20.7-19.3-4.3-3.1-8-6.1-8.4-6.7-.3-.6-3.1-2.8-6.1-5-2.9-2.2-8.1-6.5-11.5-9.5-3.4-3.1-8.2-6.8-10.6-8.3-8.8-5.5-31-22.4-32.5-24.9-.5-.6-3.1-2.8-6-4.8l-5.2-3.7-41-5.9c-22.6-3.2-42.3-6.1-43.7-6.3-2-.4-3.4.3-6 3z"/></svg>